<svg xmlns="http://www.w3.org/2000/svg" viewBox="0 0 339.23 387.09"><defs><style>.cls-1{fill:#0058b7;}.cls-2{font-size:52px;fill:#e6e7e8;font-family:Poppins-Medium, Poppins;font-weight:500;}.cls-3{fill:#fadc4b;}</style></defs><title>Asset 3</title><g id="Layer_2" data-name="Layer 2"><g id="Layer_1-2" data-name="Layer 1"><rect class="cls-1" width="339.23" height="387.09" rx="50.26"/></g><g id="text_and_icons" data-name="text and icons"><text class="cls-2" transform="translate(44.99 341.05)">HUNGARY</text><path class="cls-3" d="M133,209.43h-1.33c-.47-.49-.86-1.28-1.42-1.43a35.69,35.69,0,0,0-5.15-.85,26.67,26.67,0,0,0-3.46.06,21.6,21.6,0,0,1-2.66.11c-1.07-.1-2.32-.84-3.16-.5-3.2,1.28-5.07-1.63-7.68-2.15a3.88,3.88,0,0,1-2.56-1.88,5.43,5.43,0,0,0-6.39-3.64c-3.89.68-5.12-1.77-6.51-4.19-1.94-3.37-3.59-6.89-7.45-8.61a10.62,10.62,0,0,1-3.35-2.1c-3-3.08-4.79-7.27-9.09-9.09-.93-.39-1.6-1.41-2.36-2.17-1.24-1.23-2.49-2.44-3.67-3.73a21.7,21.7,0,0,1-2.46-3.11,36.76,36.76,0,0,1-1.81-3.67c-.81-2.1-2.53-4-2.5-6,0-3-.87-4.44-3.78-3.77l-3.18.73v-1.34c.54-.32,1.26-.51,1.6-1,2.58-3.66,5.7-6.09,10.53-4.91.13,0,.32-.22-.21.18l1.22-7.24c-2.83-1.44-3.25-3.21-1.32-6.28a3.86,3.86,0,0,0,.28-2.35c-.21-1.55-.62-3.06-1-5,5.57.83,7.65-2.34,8.73-6-.21-6.18-5.91-4.9-9.39-7.34,1.46-.9,2.85-1.42,3.77-2.38,2.66-2.77,4.48-2.59,7,.52.57.71,2.18.68,3.34.81.47.06,1-.5,1.51-.52,2.31-.06,4.63,0,7.13,0l-1.5-8c.67-.87,2.12-1.9,2.09-2.89-.07-2.57.64-4.76,3.12-5a7.87,7.87,0,0,1,5.69,2c3.18,3.31,6.21,6.61,10.1,9.24,2.33,1.58,4.32,2.71,7.13,2.58,7.59-.34,15.2-.47,22.8-.87a26.12,26.12,0,0,0,6.56-1.39,25.53,25.53,0,0,0,4.29-2.38c-5.27-3.33-1.67-7.12.32-11.1l20.79-2.22,5.73-8.23,11,5.73c.88-.59,1.66-1.15,2.48-1.66,1.39-.89,2.81-1.73,4.19-2.62.73-.47,1.34-1.34,2.11-1.47,3.9-.7,6.64-2.69,7.68-6.59,1.4-5.22,4.2-8.86,9.9-9.67a34.32,34.32,0,0,0,4.38-1.21h.67a55.63,55.63,0,0,0,5.29,3,24.15,24.15,0,0,0,4.38,1.06,31,31,0,0,0,5.17-1.16,39.43,39.43,0,0,0,5.15-2.94h1.33c2.4,3.49,6.23,5.76,7.65,10.21.7,2.19,3.12,3.83,6.12,1.79,1.28-.87,3.16-.85,4.75-1.28,2.12-.58,4.21-1.3,6.36-1.75a2.53,2.53,0,0,1,2.18.6c1.3,2.13,2.32,4.44,3.54,6.62.33.6,1.11,1.48,1.55,1.41,4.5-.75,5.84,2.48,6.73,5.64.71,2.57,1.95,2.59,3.83,1.78,2.41-1,4.26-.73,5.41,1.88.2.45.79.73,1.2,1.09v5.33c-2.46,2.54-4.72,5.34-7.48,7.5-1.12.88-3.34.51-5.05.44-.73,0-1.44-.73-1.78-.92-1.27,1.21-2.32,2.94-3.1,2.83-3.15-.45-4.17,1.58-5.47,3.65a27.23,27.23,0,0,1-3.77,4.94c-2.27,2.21-4.76,4.09-3,7.88.26.55-.63,2.35-1.07,2.38-2.91.21-3,2.64-3.74,4.45-1.6,3.78-1.77,8.24-5.85,10.82a3.9,3.9,0,0,0-1.69,3.95c.28,2.3-1.56,5.44-3.41,7.25-2,2-3,3.49-1.85,6.17.2.49-.55,1.47-1,2.11a16.14,16.14,0,0,1-1.92,2c-.52.49-1.24,1.37-1.65,1.26-2.5-.65-2.39.95-2.63,2.58s-1.69,3.74-1.11,4.48c2.7,3.46.27,3.76-1.1,4l-5.69,8c-2.88-.66-5.35-1.54-7.86-1.68-1.39-.08-3.26-.12-3.53,2.73-.41,4.17-2.89,5-6.56,2.79-.56-.32-1.21-.49-.92-.38a36.36,36.36,0,0,1-4.14,1.26c-1.79.3-3.6.4-5.41.59a17.38,17.38,0,0,1-4.44-.83,20.78,20.78,0,0,0-3.45-.16c-1.41-.06-3.06-.63-4.17-.09-2.31,1.11-4.27,2.46-6.23-.44a2.06,2.06,0,0,0-1.83-.49c-2.1.61-4.59,0-5.7,3.19-1,2.87-4.46,3.31-6.93,4.73-2.94,1.7-4.29,2-6.48-.57-3.69,5.61-8.79,7.47-14.56,6.2-2.45,2.18-4.77,4.18-7,6.28A13.44,13.44,0,0,0,133,209.43Z"/></g></g></svg>