<svg xmlns="http://www.w3.org/2000/svg" viewBox="0 0 233.25 144.61"><defs><style>.cls-1{fill:#fadc4b;}</style></defs><title>Asset 7</title><g id="Layer_2" data-name="Layer 2"><g id="text_and_icons" data-name="text and icons"><path class="cls-1" d="M80,144.61H78.64c-.47-.49-.86-1.28-1.42-1.43a34.36,34.36,0,0,0-5.15-.85,26.67,26.67,0,0,0-3.46.06,21.6,21.6,0,0,1-2.66.11c-1.07-.1-2.32-.84-3.16-.5-3.2,1.28-5.07-1.63-7.68-2.15A3.88,3.88,0,0,1,52.55,138a5.42,5.42,0,0,0-6.38-3.64c-3.9.68-5.13-1.77-6.52-4.19-1.93-3.37-3.59-6.89-7.45-8.61a10.62,10.62,0,0,1-3.35-2.1c-3-3.08-4.79-7.27-9.09-9.09-.93-.39-1.6-1.41-2.36-2.17-1.24-1.23-2.49-2.44-3.66-3.73a22.34,22.34,0,0,1-2.47-3.11,39.06,39.06,0,0,1-1.81-3.67c-.81-2.1-2.53-4-2.5-6,0-3-.86-4.44-3.77-3.77L0,88.63V87.3c.54-.32,1.27-.51,1.6-1,2.58-3.66,5.7-6.09,10.53-4.91.13,0,.32-.22-.21.18l1.22-7.24c-2.82-1.44-3.25-3.21-1.32-6.28a3.78,3.78,0,0,0,.28-2.35c-.21-1.55-.62-3.06-1-5,5.57.83,7.65-2.34,8.73-6-.21-6.18-5.91-4.9-9.39-7.35,1.47-.89,2.85-1.41,3.77-2.37,2.66-2.77,4.48-2.59,7,.51.57.72,2.18.68,3.34.82.47.06,1-.5,1.51-.52,2.31-.06,4.63,0,7.13,0l-1.5-8c.67-.88,2.12-1.9,2.09-2.89-.07-2.57.65-4.76,3.12-5a7.83,7.83,0,0,1,5.69,2c3.18,3.31,6.21,6.61,10.1,9.24,2.33,1.58,4.32,2.71,7.13,2.58,7.6-.35,15.2-.47,22.8-.87a26.12,26.12,0,0,0,6.56-1.39A25.53,25.53,0,0,0,93.4,39c-5.27-3.33-1.66-7.12.32-11.1l20.79-2.22,5.73-8.23,11,5.73c.88-.59,1.66-1.15,2.48-1.66,1.39-.89,2.81-1.73,4.19-2.62.73-.47,1.34-1.34,2.11-1.47,3.9-.7,6.64-2.69,7.69-6.59,1.39-5.22,4.19-8.86,9.89-9.67A34.32,34.32,0,0,0,161.94,0h.67a53.46,53.46,0,0,0,5.29,3,23.34,23.34,0,0,0,4.38,1.06,30,30,0,0,0,5.17-1.15A39.43,39.43,0,0,0,182.6,0h1.33c2.4,3.49,6.23,5.76,7.65,10.21.7,2.19,3.12,3.83,6.12,1.79,1.28-.87,3.16-.85,4.75-1.28,2.12-.58,4.21-1.3,6.36-1.75a2.5,2.5,0,0,1,2.18.6c1.3,2.13,2.32,4.44,3.54,6.62.34.6,1.11,1.48,1.55,1.4,4.5-.74,5.84,2.49,6.73,5.65.72,2.57,1.95,2.59,3.83,1.78,2.41-1,4.26-.73,5.41,1.88.2.45.79.73,1.2,1.09v5.33c-2.46,2.54-4.72,5.34-7.48,7.5-1.12.88-3.34.51-5.05.44-.73,0-1.44-.73-1.78-.92-1.27,1.21-2.32,2.94-3.1,2.83-3.14-.46-4.16,1.58-5.47,3.64a27,27,0,0,1-3.77,4.95c-2.27,2.21-4.76,4.09-3,7.88.26.55-.63,2.35-1.07,2.38-2.91.21-3,2.64-3.74,4.45-1.6,3.78-1.77,8.24-5.85,10.82a3.92,3.92,0,0,0-1.69,3.95c.28,2.3-1.56,5.43-3.41,7.25-2,2-3,3.49-1.85,6.17.2.49-.55,1.47-1,2.11a15.41,15.41,0,0,1-1.92,2c-.52.49-1.24,1.38-1.65,1.27-2.5-.65-2.39,1-2.63,2.58s-1.69,3.74-1.11,4.48c2.7,3.46.27,3.76-1.09,4l-5.7,8c-2.88-.66-5.35-1.54-7.86-1.68-1.39-.08-3.25-.12-3.53,2.73-.41,4.17-2.89,5-6.56,2.79-.56-.32-1.21-.49-.92-.38a36.36,36.36,0,0,1-4.14,1.26c-1.78.3-3.6.4-5.41.59a17.46,17.46,0,0,1-4.44-.83,21.92,21.92,0,0,0-3.45-.17c-1.41,0-3.05-.62-4.17-.08-2.31,1.11-4.27,2.46-6.23-.44a2,2,0,0,0-1.83-.49c-2.1.61-4.59,0-5.7,3.19-1,2.87-4.46,3.3-6.93,4.73-2.94,1.7-4.29,2-6.48-.57-3.69,5.61-8.79,7.47-14.56,6.2-2.45,2.18-4.76,4.18-7,6.28A14,14,0,0,0,80,144.61Z"/></g></g></svg>