<svg xmlns="http://www.w3.org/2000/svg" viewBox="0 0 249.47 124.02"><defs><style>.cls-1{fill:#fadc4b;}</style></defs><title>Asset 8</title><g id="Layer_2" data-name="Layer 2"><g id="text_and_icons" data-name="text and icons"><path class="cls-1" d="M0,83.39V81.25C0,76.13,6,73,4.49,67.32c-.13-.45.34-1.1.61-1.62,2.11-4,4.27-8,6.37-12,2.27-4.32,4.69-5.19,8.65-2.73,2.15,1.34,4,3.08,6.47.57.28-.28,1.44.4,2.2.48,1.29.14,2.88.68,3.82.14,2.9-1.65,5.52-3.77,8.3-5.63a3.67,3.67,0,0,1,2.19-.8c2.47.35,3-1,3.26-3s.81-3.54,3.44-3.56c4.08,0,5.41-1.66,5.87-5.8a48.45,48.45,0,0,1,1.63-8.9,6,6,0,0,1,3.11-2.94c3.26-1.55,7.78-1.33,8.28-6.44,0-.21.62-.3.81-.55,1.57-2,3-4.16,4.7-6.1a3.78,3.78,0,0,1,2.48-1.07c2.56-.09,5.13.2,7.68.06,2.19-.13,4.34-.79,6.53-.92a2.46,2.46,0,0,1,1.75,1.58c.39,2,.46,4,.7,6.65,1.58-.51,3.24-1.68,4.44-1.32,5,1.48,5.46-2,6.47-5.28.34-1.1,1.57-2.84,2.24-2.77,4.15.41,4.77-3.33,6.84-5.33h1.42c3.54,3,1.8,9.2,7,11.13.7,4.19,3.44,3.61,7.38,2-.3,5-.55,9.36-.83,13.94,1.55.31,3.69,1.91,5.53-1.15.29-.48,2.9.19,4.3.7,1,.37,1.72,1.37,2.84,2.31,2-5.71,2.43-12.35,10.69-11.35l.58-3.37c1.08.11,2.62.7,3.06.25,2.19-2.31,3.68-.57,5.56.4.74.39,2.07-.39,3.14-.57,2-.31,5.62-1,5.69-.79,1.29,4.59,6.64,4.13,8.71,7.71l6.77-5.67-1.6-2.33.35-1,6.48,1.15c3-3.52,3.68-3.51,8.31-1.24a7.51,7.51,0,0,0,4.81.28c5-1.31,8.76-.12,11.58,3.94,1-.39,2.2-1.33,2.71-1,3.85,2.22,8.17,4.11,8.67,9.47.06.67.69,1.81,1.12,1.84,4.66.37,7.56,5.57,12.68,4.58.25-.05.71.27.86.53,1.9,3.43,5.3,2.84,8.36,3.17v.71a55.61,55.61,0,0,1-2.19,5.21c-1.95,3.57-4.43,6.9-6,10.62-1.06,2.58-.78,5.68-1.35,8.49-.18.86-1.17,1.55-1.81,2.3-2.16,2.55-5,4.8-6.29,7.72-1.19,2.66-1.09,6.06-.94,9.11.13,2.78-1,2.6-3.13,2.68-3.29.12-7,.19-9.73,1.67-3.07,1.65-4.7,1-6.22-1.37-1.66-2.61-3-5.39-4.18-7.48-1.65-1.51-2.83-2.72-4.15-3.75s-2.31-3-4.61-1.21a15,15,0,0,1-5.24,2.45,83.2,83.2,0,0,1-8.33,1.35c-2.06-.75-5.27-1.92-8.48-3.07-1.46-.51-3-1.55-4.39-1.34a103.59,103.59,0,0,0-11.3,2.69c-.59.17-1.08,1-1.43,1.69-2.54,4.69-5,9.42-7.57,14.09-.39.71-1.34,1.64-2,1.6-3.4-.21-5.58,1.26-7.89,3.73-2.15,2.29-5.39,3.55-8.33,5.38-.33-4.33-3.41-1.94-5.36-2.24-.09-2.2-6.19-5.8-7.91-4.78-.2.12-.34.38-.54.46-4,1.52-3.9,5.46-4.73,8-4,1.1-7.42,2.07-10.88,3a4.64,4.64,0,0,1-1.05,0c-4.38.17-8.8.81-13.12.39s-5.06,3.68-6,5.58-2.13,6.55,2.32,8.26c.31.12.4.79.26.5A67.07,67.07,0,0,1,81.17,121,14.23,14.23,0,0,1,77,122.08c-3.81.59-8-1-11.39,1.94H61.3a28.47,28.47,0,0,0-13.46-1c-3.12.51-7.29.64-9.56-1-4.62-3.38-10.12-5.85-13.28-11.22-2.13-3.61-5.87-5.09-10.24-5-1.4,0-4.08-1.34-4-1.73.62-4.06-1.33-6.43-4.3-8.73-1.05-.82-.76-3.18-1.54-4.59C3.49,88.16,3.13,84.82,0,83.39Z"/></g></g></svg>