<svg xmlns="http://www.w3.org/2000/svg" viewBox="0 0 339.23 387.09"><defs><style>.cls-1{fill:#0058b7;}.cls-2{font-size:52px;fill:#e6e7e8;font-family:Poppins-Medium, Poppins;font-weight:500;}.cls-3{fill:#fadc4b;}</style></defs><title>Asset 4</title><g id="Layer_2" data-name="Layer 2"><g id="Layer_1-2" data-name="Layer 1"><rect class="cls-1" width="339.23" height="387.09" rx="50.26"/></g><g id="text_and_icons" data-name="text and icons"><text class="cls-2" transform="translate(44.88 341.05)">SLOVAKIA</text><path class="cls-3" d="M44.88,173.22v-2.13c0-5.13,6-8.3,4.49-13.94-.13-.45.34-1.1.61-1.61,2.11-4,4.27-8,6.37-12,2.27-4.32,4.69-5.19,8.65-2.73,2.15,1.34,4,3.08,6.47.57.28-.28,1.44.4,2.2.48,1.29.14,2.88.69,3.82.15,2.9-1.66,5.52-3.77,8.3-5.64a3.67,3.67,0,0,1,2.19-.8c2.47.35,3-1,3.26-3s.81-3.54,3.44-3.56c4.08,0,5.41-1.66,5.87-5.8a48.61,48.61,0,0,1,1.63-8.9,6,6,0,0,1,3.12-2.94c3.25-1.55,7.77-1.33,8.27-6.44,0-.21.62-.3.81-.55,1.57-2,3-4.16,4.7-6.1a3.83,3.83,0,0,1,2.48-1.07c2.56-.09,5.13.2,7.68.06,2.19-.13,4.34-.78,6.53-.92a2.46,2.46,0,0,1,1.75,1.58,66.59,66.59,0,0,1,.7,6.65c1.58-.51,3.24-1.67,4.44-1.32,5.05,1.49,5.46-2,6.47-5.28.34-1.1,1.57-2.84,2.24-2.77,4.15.41,4.77-3.33,6.84-5.33h1.42c3.54,3,1.8,9.21,7,11.13.7,4.19,3.44,3.61,7.38,2-.3,5-.55,9.36-.83,14,1.55.3,3.69,1.91,5.53-1.16.29-.48,2.9.19,4.3.71,1,.36,1.72,1.36,2.84,2.3,2-5.71,2.43-12.35,10.69-11.35l.58-3.37c1.08.11,2.62.7,3.06.25,2.19-2.31,3.68-.57,5.56.4.75.39,2.07-.39,3.14-.56,2-.32,5.62-1,5.69-.8,1.29,4.59,6.64,4.13,8.71,7.71L230,105.4l-1.6-2.33.35-1,6.49,1.15c3-3.51,3.67-3.51,8.3-1.24a7.52,7.52,0,0,0,4.81.28c5-1.31,8.76-.12,11.58,3.94,1-.39,2.2-1.33,2.71-1,3.85,2.22,8.17,4.11,8.67,9.48.06.66.69,1.8,1.12,1.83,4.66.37,7.56,5.57,12.68,4.58.25,0,.71.27.86.53,1.9,3.44,5.3,2.84,8.36,3.17v.71a54.5,54.5,0,0,1-2.19,5.21c-2,3.57-4.43,6.9-6,10.62-1.06,2.58-.78,5.68-1.35,8.49-.17.86-1.17,1.55-1.81,2.3-2.16,2.55-5,4.8-6.29,7.72-1.19,2.66-1.09,6.06-.94,9.11.13,2.78-1,2.6-3.13,2.68-3.29.12-7,.19-9.73,1.67-3.07,1.65-4.7,1-6.22-1.37-1.66-2.61-3-5.39-4.18-7.48-1.65-1.5-2.83-2.72-4.15-3.74s-2.31-3-4.61-1.21a15.15,15.15,0,0,1-5.24,2.44,83.2,83.2,0,0,1-8.33,1.35c-2.06-.74-5.27-1.92-8.48-3.06-1.46-.52-3-1.56-4.39-1.35a103.59,103.59,0,0,0-11.3,2.69c-.59.17-1.08,1.05-1.43,1.69-2.54,4.69-5,9.43-7.57,14.09-.39.71-1.34,1.64-2,1.6-3.39-.21-5.58,1.26-7.89,3.73-2.15,2.29-5.39,3.55-8.33,5.38-.33-4.33-3.41-1.94-5.36-2.24-.09-2.2-6.18-5.8-7.91-4.77-.2.11-.34.38-.54.45-4,1.52-3.9,5.47-4.73,8-4,1.1-7.42,2.07-10.88,3a4.64,4.64,0,0,1-1,0c-4.38.17-8.8.81-13.11.39-4.47-.44-5.07,3.68-6,5.58s-2.13,6.55,2.32,8.26c.31.12.4.79.26.5a64.69,64.69,0,0,1-5.75,3.63,13.94,13.94,0,0,1-4.21,1.12c-3.81.59-8-.94-11.39,1.94h-4.27a28.47,28.47,0,0,0-13.46-1c-3.12.5-7.29.63-9.56-1C78.54,208.47,73,206,69.88,200.63c-2.13-3.61-5.87-5.09-10.24-5-1.4,0-4.08-1.34-4-1.73.62-4.05-1.33-6.43-4.3-8.73-1-.82-.76-3.18-1.54-4.58C48.37,178,48,174.65,44.88,173.22Z"/></g></g></svg>