<?xml version="1.0" encoding="iso-8859-1"?>
<!-- Generator: Adobe Illustrator 17.1.0, SVG Export Plug-In . SVG Version: 6.00 Build 0)  -->
<!DOCTYPE svg PUBLIC "-//W3C//DTD SVG 1.1//EN" "http://www.w3.org/Graphics/SVG/1.1/DTD/svg11.dtd">
<svg version="1.1" id="Capa_1" xmlns="http://www.w3.org/2000/svg" xmlns:xlink="http://www.w3.org/1999/xlink" x="0px" y="0px" fill="#fadc4b"
	 viewBox="0 0 226.844 226.844" style="enable-background:new 0 0 226.844 226.844;" xml:space="preserve">
<path d="M192.653,83.305c-21.301-24.364-49.438-37.782-79.231-37.782S55.491,58.94,34.19,83.305
	c-20.939,23.951-33.08,56.012-34.187,90.274c-0.065,2.03,0.695,4,2.108,5.459c1.413,1.459,3.357,2.283,5.388,2.283h211.844
	c2.031,0,3.976-0.824,5.388-2.283c1.413-1.459,2.174-3.429,2.108-5.459C225.733,139.316,213.593,107.256,192.653,83.305z
	 M113.422,113.295c25.955,0,47.454,22.716,51.48,52.984H61.942C65.969,136.011,87.467,113.295,113.422,113.295z"/>
<g>
</g>
<g>
</g>
<g>
</g>
<g>
</g>
<g>
</g>
<g>
</g>
<g>
</g>
<g>
</g>
<g>
</g>
<g>
</g>
<g>
</g>
<g>
</g>
<g>
</g>
<g>
</g>
<g>
</g>
</svg>
