<svg xmlns="http://www.w3.org/2000/svg" viewBox="0 0 170.56 213.2"><defs><style>.cls-1{fill:#fadc4b;}</style></defs><title>Asset 6</title><g id="Layer_2" data-name="Layer 2"><g id="text_and_icons" data-name="text and icons"><path class="cls-1" d="M170.56,147.41V148c-2.55,1.93-5.65,1.77-8.37,1.31-2.52-.42-4.05,0-5.21,1.92-4.58-.42-3.11-6.18-7-7.57.46,2.92-1.37,2.93-3.5,2.72a12.78,12.78,0,0,1,.47,3.12c-.07.7-.66,1.8-1.16,1.89-.95.17-2.82-.11-2.89-.47-.43-2.32-1.38-3.91-3.89-4.28-.27,0-.54-.55-.68-.9-.52-1.3-1-2.61-1.59-4.19l-3.26,3-2.42-3.48c-.77,2.51-1.32,4.28-1.93,6.3l-3.06,2.18V137.83l-.74-.63c-2.94,3.69-7.67,3.36-11.22,5.72l1.54,1.26-4.62.31c.66,1.9,1.15,3.52,1.79,5.09,1,2.37,1.87,4.68.15,7.11-1,1.4-.44,2.34.93,3.22a39.49,39.49,0,0,1,3.72,3.07c-.83,1.12-1.48,2-2.15,2.89a12.84,12.84,0,0,0-2,2.68,3.62,3.62,0,0,0,0,2.8c1.72,2.77,1.1,4.72-2.09,5.52-2.06.52-4.14,1-6.24,1.33s-2.68,1.62-2.39,3.45c.33,2.07.79,4.11,1.18,6.09-1.68,1.2-5,.48-3.58,4.1l-5.59.86-.11,2.58-2.76-1c-.87,1.72-1.68,3.3-2.47,4.85,3.2,2.16,3.43,5.31.73,7.61.81,4.31.81,4.31-2.85,4.78-3.13-3.66-6.89-5.24-9.48-.5-.39.71-.75,1.43-1.12,2.14H75.53a21.8,21.8,0,0,1-1.14-4c-.16-1.65.09-3.24-2.17-3.7-.48-.1-.91-1.26-1-2,0-.25,1.11-.56,1.61-1,.67-.57,1.75-1.25,1.77-1.91.05-2.11.34-4.58-.61-6.27-3.3-5.88,0-12.78-3.23-18.59-.19-.34.19-1,.18-1.46-.11-4.48,4-8.63,1-13.35-.17-.28.13-.95.36-1.35,1.47-2.69,5-4.46,3.8-8.38-.08-.3.69-.76.84-1.22.62-1.93,2.23-4.61,1.51-5.69-1.74-2.57-.78-5-.92-7.5-.08-1.33.78-2.81.47-4-.94-3.65-1.59-7.63-3.58-10.69-2.26-3.46-2.37-7-2.93-10.71a8.91,8.91,0,0,0-2.41-4.74,54.17,54.17,0,0,0-8.92-7.53c-3.81-2.41-3.28-6.83-5.32-10-.94-1.48-1.21-2.88-3.14-3.54s-4.37-1.21-4.59-4.26a26.53,26.53,0,0,0-1.53-6.52c-.31-.93-1.5-2.41-2-2.3-2.16.47-2.72-.93-3.36-2.3-1.07-2.28-1.87-4.5-3.83-6.49C33.82,61,30,58.3,32,53.43c.09-.23-.08-.6-.21-.87a52.79,52.79,0,0,0-2.91-5.71c-1.23-1.91.19-4.91-2.6-6.1,1-2.69-1-4.31-2.24-6.21-1.75-2.6-3.41-5.25-5.37-8.28-2.64.31-2.12-3.06-3.59-4.53a12.29,12.29,0,0,1-2.84-1.59c-1.24-.89-2.35-2.28-3.73-2.61A72,72,0,0,0,0,16.45V15.23l4.65-3.72a13.67,13.67,0,0,0,2.56,2c.64.34,1.66,0,2.51-.12-.21-1-.11-2.27-.7-2.88A44.77,44.77,0,0,0,4.09,6.76a18.15,18.15,0,0,0,3-.67c2.86-1.28,4.63-.61,6.5,1.77a5.12,5.12,0,0,0,3.74,1.31c1.08,0,2.13-1,3.27-1.61l-.78-2.47A21.85,21.85,0,0,0,32.14,8.24c.27-.74.45-1.32.68-1.88a7.08,7.08,0,0,1,.9-1.9,4.08,4.08,0,0,1,1.51-.89c2.56,3.77,4.53,1.9,6.47-.61.16-.2.61-.16.83-.33C43.6,1.77,44.64.88,45.69,0H46.9c-.36,2.89,2,4.06,3.7,3.44,3.45-1.25,5.76-.25,8,2.1.71.75,1.36,1.57,2.09,2.32,1.26,1.28,2.47,3.49,3.84,3.6,4.64.4,7.48,1.83,5.87,8l4-2.8c.39.59.88,1,.88,1.39,0,3.62,1.84,2.44,3.72,1.56,1.45-.68,3-1.18,4.43-1.74,2,3.54-1.51,4.68-2,7.32a7,7,0,0,0,2.81-.84c.93-.45,1.85-.95,3.53-1.82-1,3.91-1.08,6.5,2,7.92.58-1.94.79-3.92,1.73-5.46s2-3.6,4.64-1.18a8.41,8.41,0,0,0,7.63,2.41c2.84-.63,4.15.49,3.42,3.4-.83,3.3,1.52,5.29,3,7.64.2.33,1,.69,1.2.55,1.66-1.14,2.48.39,3.7.9a6.61,6.61,0,0,0,3.39,0c.22-2.82,2.5-2.06,4.27-2.79.53,2.56,1,4.91,1.51,7.21l2.7.62-3.25,5.68,4.36.23a37.69,37.69,0,0,0-2.23,3.89,11.92,11.92,0,0,0-.76,3.3c-.29,2.56,1,5.38-1,7.65a32.16,32.16,0,0,1-3.91,3.16c1.82,2.39,4,4.88,3,9l2.54-2,.67,1.9,3-1.31c1.55,1.82-.38,5.77,4,5-.09,1.08-.49,2-.17,2.62a18.76,18.76,0,0,0,2.47,2.91c.81-.83,2.19-1.58,2.32-2.5.37-2.65,2.08-2.52,4.18-2.64.27,1.6.63,3.07.74,4.56.08,1,.16,2.77-.34,3-1.87.94-1.27,2.29-1.08,3.64.23,1.57.52,3.14.79,4.8l-3.65,1.13,1.41,3.06c1.34-.36,2.43-.92,3.46-.82.45,0,1.2,1.58,1,2.24-.65,2.71-1.6,5.34-2.55,8.33l3-.23-.18.66,4.72,1.51,1.27,3.93,6-1.38c.41,1.39.77,2.59,1.11,3.77l2.72-.53a19.79,19.79,0,0,0-.26,3.44c.16,1.56.8,3.1.8,4.65,0,2-1,4.23-.57,6.12.7,3.05-1,4.5-2.74,6.18.57,2.24,1.28,4.39,3.51,3.25,1.37,1.49,2.25,3,3.57,3.73C166.66,146.64,168.69,146.88,170.56,147.41Z"/></g></g></svg>