<svg xmlns="http://www.w3.org/2000/svg" viewBox="0 0 339.23 387.09"><defs><style>.cls-1{fill:#0058b7;}.cls-2{font-size:52px;fill:#e6e7e8;font-family:Poppins-Medium, Poppins;font-weight:500;}.cls-3{fill:#fadc4b;}</style></defs><title>Asset 2</title><g id="Layer_2" data-name="Layer 2"><g id="Layer_1-2" data-name="Layer 1"><rect class="cls-1" width="339.23" height="387.09" rx="50.26"/></g><g id="text_and_icons" data-name="text and icons"><text class="cls-2" transform="translate(38.46 341.05)">MOLDOVA</text><path class="cls-3" d="M254.89,192.65v.61c-2.54,1.93-5.65,1.77-8.36,1.31-2.52-.42-4.06,0-5.21,1.92-4.59-.42-3.12-6.18-7-7.57.45,2.92-1.38,2.94-3.51,2.72a12.84,12.84,0,0,1,.48,3.13c-.07.69-.66,1.79-1.17,1.88-.95.17-2.82-.11-2.88-.46-.44-2.33-1.39-3.91-3.9-4.28-.27,0-.54-.56-.68-.91-.52-1.29-1-2.61-1.58-4.19l-3.26,3-2.43-3.47c-.77,2.5-1.31,4.28-1.93,6.29l-3.06,2.19V183.07l-.73-.63c-2.94,3.69-7.68,3.37-11.23,5.72l1.55,1.27-4.63.31c.66,1.89,1.15,3.52,1.8,5.08,1,2.37,1.87,4.68.14,7.11-1,1.4-.44,2.34.93,3.22a39.76,39.76,0,0,1,3.72,3.07c-.83,1.12-1.48,2-2.15,2.9a12.73,12.73,0,0,0-2,2.67,3.58,3.58,0,0,0,0,2.8c1.73,2.77,1.1,4.72-2.09,5.53-2.06.51-4.14,1-6.24,1.32s-2.67,1.62-2.38,3.46c.32,2.06.78,4.1,1.17,6.09-1.67,1.19-5,.47-3.57,4.09l-5.59.87-.12,2.57-2.76-1-2.46,4.85c3.19,2.16,3.42,5.31.73,7.61.8,4.31.8,4.31-2.85,4.78-3.13-3.66-6.89-5.24-9.49-.5-.38.71-.74,1.43-1.12,2.14h-1.21a21.61,21.61,0,0,1-1.15-4c-.15-1.65.09-3.23-2.17-3.7-.48-.1-.91-1.25-1-2,0-.24,1.11-.55,1.61-1,.68-.57,1.75-1.25,1.77-1.91.06-2.1.34-4.58-.61-6.27-3.3-5.88,0-12.77-3.23-18.58-.19-.35.19-1,.18-1.47-.11-4.47,4-8.62,1-13.35-.17-.27.13-.94.35-1.35,1.48-2.69,5-4.45,3.81-8.38-.09-.29.68-.76.83-1.21.62-1.93,2.24-4.62,1.51-5.7-1.74-2.57-.77-5-.92-7.49-.08-1.34.78-2.82.47-4-.93-3.66-1.58-7.64-3.57-10.69-2.26-3.46-2.38-7-2.93-10.72a8.93,8.93,0,0,0-2.42-4.73,54.58,54.58,0,0,0-8.91-7.54c-3.82-2.41-3.29-6.83-5.33-10.05-.94-1.48-1.21-2.88-3.13-3.54s-4.38-1.21-4.6-4.25A26.75,26.75,0,0,0,130,120c-.32-.94-1.51-2.42-2-2.31-2.15.47-2.72-.93-3.36-2.3-1.06-2.28-1.86-4.5-3.83-6.49-2.6-2.63-6.39-5.36-4.46-10.24.09-.22-.07-.6-.2-.87a56.67,56.67,0,0,0-2.91-5.71c-1.24-1.91.19-4.91-2.61-6.09,1-2.7-1-4.32-2.23-6.21-1.75-2.6-3.42-5.26-5.38-8.29-2.64.31-2.11-3.06-3.59-4.53a12,12,0,0,1-2.83-1.59c-1.25-.88-2.36-2.27-3.73-2.6a70.36,70.36,0,0,0-8.49-1.09V60.47L89,56.75a12.8,12.8,0,0,0,2.55,2c.64.33,1.67-.06,2.52-.12-.22-1-.11-2.28-.71-2.88A43.35,43.35,0,0,0,88.43,52a18.71,18.71,0,0,0,2.95-.67c2.85-1.28,4.62-.6,6.5,1.77.7.9,2.47,1.34,3.73,1.32,1.08,0,2.14-1,3.27-1.62l-.78-2.47a21.94,21.94,0,0,0,12.37,3.16c.27-.75.46-1.33.69-1.88a7,7,0,0,1,.89-1.91,3.87,3.87,0,0,1,1.51-.88c2.57,3.76,4.53,1.89,6.48-.62.15-.2.6-.15.82-.33,1.07-.86,2.11-1.75,3.16-2.63h1.22c-.37,2.89,2,4.07,3.7,3.45,3.44-1.26,5.75-.26,8,2.09.72.76,1.37,1.57,2.1,2.32,1.25,1.28,2.46,3.49,3.84,3.61,4.64.39,7.47,1.82,5.86,8l4-2.8c.38.59.87,1,.87,1.39,0,3.63,1.84,2.45,3.72,1.57,1.46-.69,3-1.19,4.44-1.75,2,3.54-1.52,4.69-2,7.32a7.13,7.13,0,0,0,2.82-.84c.93-.45,1.84-.94,3.52-1.81-1,3.9-1.08,6.49,2,7.91.57-1.94.78-3.92,1.72-5.46s2-3.6,4.64-1.18a8.41,8.41,0,0,0,7.63,2.41c2.84-.63,4.15.49,3.42,3.41-.83,3.29,1.52,5.29,3,7.63.21.33,1,.69,1.21.56,1.66-1.15,2.47.38,3.69.89a6.61,6.61,0,0,0,3.39,0c.22-2.82,2.51-2.06,4.27-2.79.54,2.57,1,4.91,1.51,7.22l2.7.62-3.24,5.67,4.35.24a37.66,37.66,0,0,0-2.23,3.88,12.29,12.29,0,0,0-.76,3.3c-.29,2.56,1,5.39-1,7.65a33.14,33.14,0,0,1-3.91,3.17c1.82,2.38,4,4.88,3.06,9l2.54-2,.67,1.9,3-1.31c1.55,1.82-.38,5.78,4,5-.1,1.08-.49,2-.17,2.63a18.09,18.09,0,0,0,2.47,2.9c.8-.83,2.18-1.58,2.31-2.5.37-2.65,2.09-2.52,4.18-2.63.27,1.59.63,3.06.74,4.55.08,1,.17,2.78-.34,3-1.87.95-1.27,2.3-1.07,3.64.22,1.57.51,3.14.79,4.81L223,143.06l1.41,3.07c1.34-.37,2.44-.93,3.46-.82.45,0,1.21,1.57,1,2.24-.65,2.7-1.6,5.33-2.55,8.33l3-.23-.18.66,4.72,1.5,1.28,3.93,6-1.38,1.12,3.77,2.72-.53a19.92,19.92,0,0,0-.27,3.44c.16,1.57.8,3.11.8,4.65,0,2.05-1,4.23-.57,6.13.7,3-1,4.49-2.74,6.18.57,2.23,1.28,4.38,3.51,3.24,1.38,1.5,2.25,3,3.57,3.74C251,191.88,253,192.13,254.89,192.65Z"/></g></g></svg>