<svg xmlns="http://www.w3.org/2000/svg" viewBox="0 0 186.75 174.04"><defs><style>.cls-1{fill:#fadc4b;}</style></defs><title>Asset 5</title><g id="Layer_2" data-name="Layer 2"><g id="text_and_icons" data-name="text and icons"><path class="cls-1" d="M94.23,19.89c2.08-3.19,3.58-5.7,5.34-8,.37-.5,1.71-.5,2.55-.37,5.6.89,11.18,2.52,16.79,2.69,10.46.31,20.93-.19,31.4-.4,1,0,2.38,0,3.06-.55,3.91-3.34,7-.77,9.88,1.42a13.66,13.66,0,0,1,5.7,9.47c.71,5.17,2,10.28,5.15,14.88,4,5.88,4.2,13,5,19.84.16,1.42-1.19,3.32-2.35,4.52-3.07,3.2-6.45,6.1-9.62,9.21-1.66,1.62-1.32,3.14.89,3.82,5.36,1.64,7.31,5.14,6.39,10.58a22.43,22.43,0,0,0-.17,5.73,28.12,28.12,0,0,0,1.28,5c.21.71.83,1.35.87,2,.34,6.17,4.42,10.2,8.07,14.53.65.77,1.26,2.58.86,3.06-1.95,2.37-.23,3.64,1,5.36a4.4,4.4,0,0,1,.28,3.34,38.93,38.93,0,0,1-2.41,5.2c-4.93-1.28-6.3,3.53-8.79,6.45-3.86,4.52-7.21,9.47-11.07,14-2.54,3-3.91,5.86-2.8,9.81.63,2.22.46,4.67,1.08,6.89a31.13,31.13,0,0,0,2.53,5.25c-.39.16-.71.44-.92.37-4-1.27-7.9-2.61-11.86-3.89-2.31-.76-4.65-1.42-5.75-4a1.86,1.86,0,0,0-1.16-1c-5.38-.7-10.65-3.39-16.2-1.06-.61.25-1,1-1.57,1.39s-1.58.92-2,.69c-4.78-2.68-9.22-1.28-13.42,1.18-1.19.7-1.73,2.49-2.43,3.57-1.76,0-4.1.68-5.19-.2s-.59-3.28-.8-5l-7.53-7.1a43.58,43.58,0,0,0-3.55,5,2.37,2.37,0,0,1-4,.78c-1.42-1.34-2.2-3.37-3.22-5.12s-1.41-3.95-4.21-4.62c-1.16-.28-1.71-3.12-2.59-4.9-1.81-.84-3.92-2-6.16-2.8a10.94,10.94,0,0,0-4.76-.77,5.38,5.38,0,0,1-5.7-2.6c-.62-1.19.41-3.26,1.37-4.83-.1-.17-.23-.49-.31-.48-4.43.63-8-1.17-11.42-3.73a5,5,0,0,0-2.68-.75,2.15,2.15,0,0,0-1.73.83c-.17.43.4,1.2.72,1.78.4.73.88,1.42,1.32,2.12-.69.34-1.39.67-2.08,1a16.64,16.64,0,0,0-2.89,1.55c-2,1.61-3.21,1.16-4-1.23a7.21,7.21,0,0,0-2.48-3.36c-3.56-2.59-3.71-4.37-.46-7.19a2.26,2.26,0,0,0,.17-2.21c-.54-.68-1.72-1.46-2.42-1.3-5,1.16-8.38-2.86-12.65-4-2.19-.58-3.72-3.56-5.63-5.36a7.32,7.32,0,0,0-2.79-1.83c-2.18-.61-2.79-1.83-2.49-4a30.7,30.7,0,0,0,.44-7.87c-.19-1.62-1.46-3.24-2.57-4.6A12.31,12.31,0,0,1,7,86.86c1.37-4.8,2.19-9.09-.89-13.51-.47-.66.12-2.5.76-3.41,1.72-2.48,1-4.34-1-6.09-1.45-1.25-3-2.39-4.33-3.75-2.26-2.31-1.95-5.1,0-7.63,5-6.48,7.87-13.78,7.54-22.1a4.31,4.31,0,0,0-.88-2.32c-1.81-2.38-.88-4.29,1.43-5a84.39,84.39,0,0,1,13.81-3.23c3-.4,5.7-.59,8.28-2.53C33.43,16,36,16,37.92,15a15,15,0,0,0,4.19-3.37C44.57,8.82,47,6.33,51.22,6.84A5.39,5.39,0,0,0,54.78,5.3,17.05,17.05,0,0,1,65.45,1C68.62.75,71.77,0,74.93,0a4.47,4.47,0,0,1,3.18,2.14,64.48,64.48,0,0,1,3.34,8c.9,2.43,5.48,5.49,8.06,5.5a4.51,4.51,0,0,1,2.54,1.26A18,18,0,0,1,94.23,19.89Z"/></g></g></svg>