<svg xmlns="http://www.w3.org/2000/svg" viewBox="0 0 339.23 387.09"><defs><style>.cls-1{fill:#0058b7;}.cls-2{font-size:52px;fill:#e6e7e8;font-family:Poppins-Medium, Poppins;font-weight:500;}.cls-3{fill:#fadc4b;}</style></defs><title>Asset 1</title><g id="Layer_2" data-name="Layer 2"><g id="Layer_1-2" data-name="Layer 1"><rect class="cls-1" width="339.23" height="387.09" rx="50.26"/></g><g id="text_and_icons" data-name="text and icons"><text class="cls-2" transform="translate(60.83 341.05)">POLAND</text><path class="cls-3" d="M170.47,84.71c2.08-3.19,3.58-5.7,5.34-8,.37-.5,1.71-.5,2.55-.36,5.6.88,11.17,2.51,16.79,2.68,10.46.32,20.93-.19,31.4-.4,1,0,2.38,0,3.06-.55,3.9-3.34,7-.77,9.88,1.42a13.66,13.66,0,0,1,5.7,9.47c.71,5.18,2,10.28,5.15,14.88,4,5.89,4.2,13,5,19.84.16,1.42-1.19,3.32-2.35,4.52-3.07,3.2-6.45,6.1-9.62,9.21-1.66,1.62-1.32,3.14.89,3.82,5.36,1.64,7.31,5.14,6.39,10.58a22.43,22.43,0,0,0-.17,5.73,28.44,28.44,0,0,0,1.28,5c.21.7.83,1.34.87,2,.34,6.18,4.41,10.21,8.07,14.53.65.77,1.26,2.58.86,3.06-1.95,2.37-.23,3.64,1,5.36a4.4,4.4,0,0,1,.28,3.34,40.23,40.23,0,0,1-2.41,5.2c-4.93-1.28-6.3,3.53-8.79,6.45-3.86,4.52-7.21,9.47-11.07,14-2.54,3-3.91,5.86-2.8,9.81.63,2.22.46,4.67,1.07,6.89a32,32,0,0,0,2.54,5.25c-.39.17-.71.44-.92.37-4-1.27-7.9-2.61-11.86-3.89-2.31-.76-4.65-1.42-5.76-4a1.84,1.84,0,0,0-1.15-1c-5.38-.7-10.65-3.39-16.2-1.06-.61.25-1,1-1.57,1.39s-1.58.92-2,.69c-4.78-2.68-9.22-1.28-13.42,1.18-1.19.7-1.73,2.5-2.43,3.57-1.76,0-4.1.68-5.19-.2s-.59-3.28-.8-5l-7.53-7.11a43.58,43.58,0,0,0-3.55,4.95,2.37,2.37,0,0,1-4,.78c-1.42-1.34-2.2-3.37-3.22-5.12s-1.41-3.95-4.21-4.62c-1.16-.28-1.71-3.12-2.6-4.9-1.8-.84-3.91-2-6.15-2.8a10.94,10.94,0,0,0-4.76-.77,5.38,5.38,0,0,1-5.7-2.6c-.62-1.19.41-3.26,1.37-4.83-.11-.17-.23-.49-.31-.48-4.43.63-8-1.17-11.42-3.73a5,5,0,0,0-2.68-.75,2.15,2.15,0,0,0-1.73.83c-.17.43.4,1.2.72,1.78.4.73.88,1.42,1.32,2.12-.69.34-1.39.67-2.08,1a16.64,16.64,0,0,0-2.89,1.55c-2,1.62-3.21,1.16-4-1.23a7.21,7.21,0,0,0-2.48-3.36c-3.56-2.59-3.71-4.37-.46-7.19a2.26,2.26,0,0,0,.17-2.21c-.54-.68-1.72-1.46-2.42-1.3-5,1.16-8.38-2.85-12.65-4-2.2-.59-3.72-3.57-5.63-5.37a7.32,7.32,0,0,0-2.79-1.83c-2.18-.61-2.79-1.82-2.49-4a30.81,30.81,0,0,0,.44-7.88c-.19-1.62-1.46-3.23-2.57-4.59a12.34,12.34,0,0,1-2.51-11.3c1.37-4.8,2.18-9.09-.89-13.51-.47-.66.12-2.5.76-3.41,1.72-2.48,1-4.34-1-6.09-1.45-1.25-3-2.39-4.33-3.75-2.26-2.31-1.95-5.1,0-7.63,5-6.48,7.87-13.78,7.54-22.1a4.31,4.31,0,0,0-.88-2.32c-1.81-2.38-.88-4.29,1.43-5a84.39,84.39,0,0,1,13.81-3.23c3-.4,5.7-.59,8.28-2.53,1.68-1.27,4.21-1.33,6.17-2.32a14.78,14.78,0,0,0,4.19-3.37c2.46-2.78,4.85-5.27,9.11-4.76A5.41,5.41,0,0,0,131,70.12a17.05,17.05,0,0,1,10.67-4.35c3.17-.2,6.32-.92,9.48-1A4.47,4.47,0,0,1,154.35,67a64.48,64.48,0,0,1,3.34,8c.9,2.43,5.48,5.49,8.06,5.5a4.51,4.51,0,0,1,2.54,1.26A18,18,0,0,1,170.47,84.71Z"/></g></g></svg>